<?xml version="1.0" encoding="utf-8"?>
<!-- Generator: Adobe Illustrator 19.1.0, SVG Export Plug-In . SVG Version: 6.00 Build 0)  -->
<svg version="1.1" id="Layer_1" xmlns="http://www.w3.org/2000/svg" xmlns:xlink="http://www.w3.org/1999/xlink" x="0px" y="0px"
	 viewBox="0 0 50 50" style="enable-background:new 0 0 50 50;" xml:space="preserve">
<style type="text/css">
	.st0{fill:#036bb4;}
</style>
<path class="st0" d="M8.1,1c0.6,0,1,0.3,1.4,0.7c4.7,4.7,9.3,9.3,14,14c0.6,0.6,1.2,0.9,2,0.6c0.4-0.1,0.7-0.4,1-0.7
	c4.6-4.6,9.2-9.2,13.8-13.8c1.1-1.1,2.1-1.1,3.1,0C45,3.4,46.6,5,48.2,6.6c1,1,1,2,0,3c-4.6,4.6-9.2,9.2-13.9,13.9
	c-1.1,1.1-1.1,2,0,3.1c4.6,4.6,9.2,9.2,13.8,13.8c1.1,1.1,1.1,2,0,3.1c-1.6,1.6-3.2,3.2-4.7,4.7c-1,1-2,1-3.1,0
	c-4.6-4.6-9.2-9.2-13.8-13.8c-1.1-1.1-2-1.1-3.1,0c-4.6,4.6-9.2,9.2-13.8,13.8c-1.1,1.1-2.1,1.1-3.1,0c-1.6-1.6-3.2-3.2-4.7-4.7
	c-1-1-1-2,0-3.1c4.6-4.6,9.2-9.2,13.8-13.8c1.2-1.2,1.2-2.1,0-3.2C11,18.8,6.4,14.2,1.8,9.6c-1.1-1.1-1.1-2,0-3.1
	C3.4,4.9,5,3.3,6.6,1.7C7,1.3,7.5,1,8.1,1z"/>
</svg>
