<?xml version="1.0" encoding="utf-8"?>
<!-- Generator: Adobe Illustrator 19.1.0, SVG Export Plug-In . SVG Version: 6.00 Build 0)  -->
<svg version="1.1" id="Layer_1" xmlns="http://www.w3.org/2000/svg" xmlns:xlink="http://www.w3.org/1999/xlink" x="0px" y="0px"
	 viewBox="0 0 50 50" style="enable-background:new 0 0 50 50;" xml:space="preserve">
<style type="text/css">
	.st0{fill:#2671B7;}
	.st1{fill:#086DB4;}
	.st2{fill:#D8DFF1;}
	.st3{fill:#ADE1F9;}
	.st4{fill:#9CDBF8;}
	.st5{fill:url(#SVGID_1_);}
	.st6{fill:#437BBC;}
	.st7{fill:#74C0EB;}
	.st8{fill:#A3B6DD;}
	.st9{fill:#99AED9;}
	.st10{fill:#EFF9FE;}
	.st11{fill:#E7EFF4;}
	.st12{fill:#E7F6FD;}
	.st13{fill:#DCE7ED;}
	.st14{fill:#D3E6F0;}
	.st15{fill:#FFFFFF;}
</style>
<polygon class="st0" points="1.6,22.8 0.3,23.6 0.3,23.6 0.3,31 0.3,34.8 1.6,35.6 3,34.8 3,33.3 18.1,42.1 18.1,45.1 19.5,45.9 
	20.9,45.1 20.9,34 "/>
<polygon class="st1" points="30.5,6 29.1,6.8 29.1,6.8 29.1,14.1 29.1,18 30.5,18.8 30.5,15 47,24.5 47,28.3 48.4,29.1 49.8,28.3 
	49.8,17.1 "/>
<polygon class="st0" points="20.9,37.8 48.4,21.9 48.4,26.2 20.9,42 "/>
<polygon class="st2" points="0.3,34.8 1.6,34.1 1.6,22.9 0.3,23.6 "/>
<polygon class="st1" points="1.6,35.6 3,34.8 3,31 1.7,31.8 "/>
<polygon class="st3" points="29.1,18 30.5,17.2 30.5,6 29.1,6.8 "/>
<polygon class="st0" points="29.1,6.8 29.1,14.1 29.1,18 30.5,18.8 30.5,15 47,24.5 47,28.3 48.4,29.1 48.4,25.3 48.4,25.3 
	48.4,17.9 48.4,17.9 48.4,17.9 47,17.1 47,17.1 "/>
<polygon class="st4" points="48.4,21.9 20.9,37.8 1.6,26.7 29.1,10.8 "/>
<linearGradient id="SVGID_1_" gradientUnits="userSpaceOnUse" x1="20.9" y1="30.8" x2="48.4" y2="30.8">
	<stop  offset="0" style="stop-color:#6ACEF5"/>
	<stop  offset="1" style="stop-color:#52C3F0"/>
</linearGradient>
<polygon class="st5" points="48.4,21.9 20.9,37.8 20.9,39.7 48.4,23.8 "/>
<polygon class="st6" points="49.8,17.1 30.5,6 29.1,6.8 48.4,17.9 "/>
<polygon class="st7" points="36.4,16.9 28.7,12.5 24.3,15.1 32,19.5 "/>
<polygon class="st7" points="45.4,21.9 37.7,17.5 33.3,20 41,24.5 "/>
<polygon class="st1" points="48.4,29.1 49.8,28.3 49.8,17.1 48.4,17.9 "/>
<polygon class="st3" points="41.4,26 22.1,14.9 20.7,15.7 40,26.8 "/>
<polygon class="st1" points="19.5,45.9 20.9,45.1 20.9,34 19.5,34.8 "/>
<polygon class="st0" points="0.3,23.6 0.3,31 0.3,34.8 1.6,35.6 1.7,32.5 18.1,42.1 18.1,45.1 19.5,45.9 19.5,42.1 19.5,42.1 
	19.5,34.8 19.5,34.8 19.5,34.8 18.1,34 18.1,34 "/>
<polygon class="st6" points="20.9,34 1.6,22.8 0.3,23.6 19.5,34.8 "/>
<polygon class="st3" points="41.4,28.3 40,29.1 40,26.8 41.4,26 "/>
<path class="st2" d="M35.5,14.5l-6.8-3.9l-0.9,0.5V12l0.9,1l6.8,3.9h0.9V16L35.5,14.5z"/>
<path class="st8" d="M32,16.5l3.5-2l0.9,0.5v0.9l-0.9,1L32,19h-0.9v-1L32,16.5z"/>
<path class="st2" d="M32,16.5l-6.8-3.9l-0.9,0.5V14l0.9,1l6.8,4h0.9v-1L32,16.5z"/>
<polygon class="st8" points="32,16.5 32,19 31.1,18.9 31.1,18 "/>
<polygon class="st8" points="25.2,12.6 25.2,15.1 24.3,15 24.3,14.1 "/>
<polygon class="st2" points="35.5,14.5 35.5,17 36.4,16.9 36.4,16 "/>
<polygon class="st9" points="35.5,14.5 32,16.5 25.2,12.6 28.7,10.6 "/>
<polygon class="st9" points="27.9,11.1 24.3,13.1 24.3,14.1 31.1,18 32.9,18 36.4,16 36.4,15 28.7,10.6 "/>
<rect x="27.4" y="11.4" transform="matrix(0.5002 -0.8659 0.8659 0.5002 0.8387 32.0904)" class="st10" width="1.7" height="7.8"/>
<polygon class="st9" points="35.5,14.5 32,16.5 25.2,12.6 28.7,10.6 "/>
<polygon class="st11" points="24.3,13.1 25.2,12.6 24.3,14.1 "/>
<polygon class="st12" points="31.1,18 31.1,18.9 24.3,15 24.3,14.1 "/>
<rect x="31.1" y="18" class="st13" width="1.7" height="0.9"/>
<polygon class="st8" points="31.1,18.9 32.9,18.9 32,19 "/>
<polygon class="st14" points="36.4,16 36.4,16.9 32.9,18.9 32.9,18 "/>
<rect x="32.1" y="15.5" transform="matrix(0.8661 -0.4998 0.4998 0.8661 -3.5935 19.2553)" class="st12" width="4.1" height="1.7"/>
<polygon class="st11" points="36.4,16 35.5,14.5 36.4,15 "/>
<polygon class="st11" points="31.1,18 32,16.5 32.9,18 "/>
<polygon class="st15" points="35.5,14.5 32,16.5 25.2,12.6 28.7,10.6 "/>
<path class="st2" d="M44.5,19.5l-6.8-3.9l-0.9,0.5V17l0.9,1l6.8,3.9h0.9V21L44.5,19.5z"/>
<path class="st8" d="M41,21.6l3.5-2l0.9,0.5V21l-0.9,1L41,24h-0.9v-0.9L41,21.6z"/>
<path class="st2" d="M41,21.6l-6.8-3.9l-0.9,0.5v0.9l0.9,1L41,24h0.9v-0.9L41,21.6z"/>
<polygon class="st8" points="41,21.6 41,24 40.1,24 40.1,23.1 "/>
<polygon class="st8" points="34.2,17.7 34.2,20.1 33.3,20.1 33.3,19.1 "/>
<polygon class="st2" points="44.5,19.5 44.5,22 45.4,22 45.4,21 "/>
<polygon class="st9" points="44.5,19.5 41,21.6 34.2,17.7 37.7,15.6 "/>
<polygon class="st9" points="36.9,16.1 33.3,18.1 33.3,19.1 40.1,23.1 41.9,23.1 45.4,21 45.4,20 37.7,15.6 "/>
<rect x="36.4" y="16.5" transform="matrix(0.5002 -0.8659 0.8659 0.5002 0.9716 42.4255)" class="st10" width="1.7" height="7.8"/>
<polygon class="st9" points="44.5,19.5 41,21.6 34.2,17.7 37.7,15.6 "/>
<polygon class="st14" points="33.3,18.1 34.2,17.7 33.3,19.1 "/>
<polygon class="st12" points="40.1,23.1 40.1,24 33.3,20.1 33.3,19.1 "/>
<rect x="40.1" y="23.1" class="st13" width="1.7" height="0.9"/>
<polygon class="st8" points="40.1,24 41.9,24 41,24 "/>
<polygon class="st14" points="45.4,21 45.4,22 41.9,24 41.9,23.1 "/>
<rect x="41.1" y="20.5" transform="matrix(0.8661 -0.4998 0.4998 0.8661 -4.9095 24.4381)" class="st12" width="4.1" height="1.7"/>
<polygon class="st11" points="45.4,21 44.5,19.5 45.4,20 "/>
<polygon class="st11" points="40.1,23.1 41,21.6 41.9,23.1 "/>
<polygon class="st15" points="44.5,19.5 41,21.6 34.2,17.7 37.7,15.6 "/>
</svg>
