<?xml version="1.0" encoding="utf-8"?>
<!-- Generator: Adobe Illustrator 19.1.0, SVG Export Plug-In . SVG Version: 6.00 Build 0)  -->
<svg version="1.1" id="Layer_1" xmlns="http://www.w3.org/2000/svg" xmlns:xlink="http://www.w3.org/1999/xlink" x="0px" y="0px"
	 viewBox="0 0 50 50" style="enable-background:new 0 0 50 50;" xml:space="preserve">
<style type="text/css">
	.st0{fill:#ffffff;}
</style>
<path class="st0" d="M43.3,39.2c1.3,1.3,2.6,2.6,3.9,3.9c-2.1,2.1-4.1,4.1-6.2,6.2c-1.4-1.4-2.8-2.8-4.2-4.2
	c-6.2,3.5-12.7,4.2-19.4,2C12,45.1,7.7,41.7,4.8,36.8C-1,27.1,0.9,14.4,9.9,6.9c8.8-7.3,21.6-7.2,30.2,0.3c4.6,4,7.3,9.2,8,15.3
	C48.7,28.7,47.1,34.2,43.3,39.2z M37.1,32.9c3.4-4.9,3.6-12.8-1.9-18.3C29.7,9,21,8.8,15.2,13.9c-5.8,5.1-6.6,13.9-1.8,19.9
	c4.8,6.1,12.3,6.5,16.9,4.5c-1.3-1.3-2.5-2.5-3.8-3.8c2.1-2.1,4.1-4.1,6.2-6.2C34.1,29.9,35.6,31.4,37.1,32.9z"/>
</svg>
