<?xml version="1.0" encoding="utf-8"?>
<!-- Generator: Adobe Illustrator 19.1.0, SVG Export Plug-In . SVG Version: 6.00 Build 0)  -->
<svg version="1.1" id="Layer_1" xmlns="http://www.w3.org/2000/svg" xmlns:xlink="http://www.w3.org/1999/xlink" x="0px" y="0px"
	 viewBox="0 0 50 50" style="enable-background:new 0 0 50 50;" xml:space="preserve">
<style type="text/css">
	.st0{fill:url(#SVGID_1_);}
	.st1{fill:url(#SVGID_2_);}
	.st2{fill:url(#SVGID_3_);}
	.st3{fill:#B74000;}
	.st4{fill:url(#SVGID_4_);}
	.st5{fill:#FA9D06;}
	.st6{fill:url(#SVGID_5_);}
	.st7{fill:#E78800;}
	.st8{fill:url(#SVGID_6_);}
	.st9{fill:#B25000;}
	.st10{fill:#DA8931;}
	.st11{fill:#DE8C32;}
</style>
<linearGradient id="SVGID_1_" gradientUnits="userSpaceOnUse" x1="28.6864" y1="31.9748" x2="31.132" y2="31.9748" gradientTransform="matrix(1 0 0 -1 0 50)">
	<stop  offset="0" style="stop-color:#70290D"/>
	<stop  offset="1" style="stop-color:#B25000"/>
</linearGradient>
<polygon class="st0" points="28.7,23.4 28.7,24.1 29.3,23.8 31.1,20.1 31.1,11.9 28.7,13.3 "/>
<linearGradient id="SVGID_2_" gradientUnits="userSpaceOnUse" x1="18.1472" y1="21.9246" x2="28.6864" y2="21.9246" gradientTransform="matrix(1 0 0 -1 0 50)">
	<stop  offset="0" style="stop-color:#B25000"/>
	<stop  offset="1" style="stop-color:#9C3C00"/>
</linearGradient>
<polygon class="st1" points="28.7,23.4 18.1,29.4 18.1,32.7 28.7,26.6 "/>
<linearGradient id="SVGID_3_" gradientUnits="userSpaceOnUse" x1="18.1472" y1="20.0943" x2="29.5617" y2="20.0943" gradientTransform="matrix(1 0 0 -1 0 50)">
	<stop  offset="0" style="stop-color:#70290D"/>
	<stop  offset="1" style="stop-color:#B25000"/>
</linearGradient>
<polygon class="st2" points="29.6,27.2 19,33.2 18.1,32.7 28.7,26.6 "/>
<polygon class="st3" points="35.1,45.9 35.1,42.4 1.9,23.4 1.9,26.9 "/>
<linearGradient id="SVGID_4_" gradientUnits="userSpaceOnUse" x1="35.0707" y1="9.5036" x2="48.1174" y2="9.5036" gradientTransform="matrix(1 0 0 -1 0 50)">
	<stop  offset="0" style="stop-color:#770C00"/>
	<stop  offset="1" style="stop-color:#7F1200"/>
</linearGradient>
<polygon class="st4" points="48.1,35.1 35.1,42.4 35.1,45.9 48.1,38.6 "/>
<polygon class="st5" points="16.3,9.8 3.2,17.2 0.1,15.4 13.1,8 "/>
<linearGradient id="SVGID_5_" gradientUnits="userSpaceOnUse" x1="3.2367" y1="32.9221" x2="16.2782" y2="32.9221" gradientTransform="matrix(1 0 0 -1 0 50)">
	<stop  offset="0" style="stop-color:#B25000"/>
	<stop  offset="1" style="stop-color:#9C3C00"/>
</linearGradient>
<polygon class="st6" points="16.3,9.9 3.2,17.2 3.2,24.3 16.3,16.9 "/>
<polygon class="st7" points="18.2,32.7 18.2,29.3 3.2,20.9 3.2,24.2 "/>
<polygon class="st7" points="3.2,24.3 3.2,17.2 0.1,15.4 0.1,22.5 "/>
<polygon class="st5" points="28.7,23.4 18.2,29.4 3.2,20.8 13.8,14.9 "/>
<polygon class="st7" points="28.7,23.4 28.7,13.3 13.8,4.8 13.8,14.9 "/>
<polygon class="st7" points="33.7,41.8 33.7,38.3 18.7,29.7 18.7,33.2 "/>
<polygon class="st5" points="31.1,11.9 28.7,13.3 13.8,4.8 16.2,3.4 "/>
<polygon class="st7" points="44.3,32.4 44.3,22.3 29,13.5 29,23.6 "/>
<polygon class="st5" points="46.7,20.9 44.3,22.3 29,13.5 31.5,12.1 "/>
<linearGradient id="SVGID_6_" gradientUnits="userSpaceOnUse" x1="44.2765" y1="23.3894" x2="46.7375" y2="23.3894" gradientTransform="matrix(1 0 0 -1 0 50)">
	<stop  offset="0" style="stop-color:#B25000"/>
	<stop  offset="1" style="stop-color:#9C3C00"/>
</linearGradient>
<polygon class="st8" points="46.7,20.9 44.3,22.3 44.3,32.4 46.7,30.9 "/>
<polygon class="st5" points="44.3,32.3 33.7,38.3 18.7,29.7 29.3,23.7 "/>
<polygon class="st5" points="49.9,29.1 36.9,36.5 33.7,34.7 46.8,27.3 "/>
<polygon class="st9" points="49.9,29.2 36.9,36.5 36.9,43.6 49.9,36.2 "/>
<polygon class="st7" points="36.9,43.6 36.9,36.5 33.7,34.7 33.7,41.8 "/>
<polygon class="st10" points="13.8,14.9 3.3,20.8 6.7,20.8 15.5,15.8 "/>
<polyline class="st11" points="13.8,14.9 15.5,15.8 13.8,11.4 13.7,14.8 "/>
</svg>
