<?xml version="1.0" encoding="utf-8"?>
<!-- Generator: Adobe Illustrator 19.1.0, SVG Export Plug-In . SVG Version: 6.00 Build 0)  -->
<svg version="1.1" id="Layer_1" xmlns="http://www.w3.org/2000/svg" xmlns:xlink="http://www.w3.org/1999/xlink" x="0px" y="0px"
	 viewBox="0 0 50 50" style="enable-background:new 0 0 50 50;" xml:space="preserve">
	 <style type="text/css">
	.st0{fill:#FFFFFF;}
</style>
<path class="st0" d="M3.7,23.5c1.6,0,3.1,0.5,4.5,1c2.8,1,5.4,2.3,8,3.7c0.3,0.2,0.4,0.1,0.7-0.1c5.1-6.1,10.5-12,16.3-17.5
	c2.6-2.5,5.3-5,8.3-7.1c1.2-0.9,2.5-1.7,4-2.1c0.9-0.3,1.8-0.4,2.7-0.1c1.4,0.5,1.8,1.8,1,3c-0.5,0.7-1,1.3-1.6,1.9
	c-1.9,1.9-3.8,3.7-5.7,5.6c-6.7,6.9-12.1,14.7-16.5,23.2c-2.3,4.3-4.3,8.7-6.1,13.2c-0.3,0.8-0.8,1.1-1.6,1
	c-0.5-0.1-0.8-0.4-1.1-0.8c-1.7-2.8-3.3-5.6-5.1-8.4c-2.9-4.6-6.4-8.8-10.5-12.4c-0.6-0.5-0.6-1.1-0.5-1.8c0.2-1.1,1.1-1.9,2.3-2.1
	C3.2,23.5,3.5,23.5,3.7,23.5z"/>
</svg>
