<?xml version="1.0" encoding="utf-8"?>
<!-- Generator: Adobe Illustrator 19.1.0, SVG Export Plug-In . SVG Version: 6.00 Build 0)  -->
<svg version="1.1" id="Layer_1" xmlns="http://www.w3.org/2000/svg" xmlns:xlink="http://www.w3.org/1999/xlink" x="0px" y="0px"
	 viewBox="0 0 50 50" style="enable-background:new 0 0 50 50;" xml:space="preserve">
<style type="text/css">
	.st0{fill:#5d9ab4;}
</style>
<path class="st0" d="M39.4,33.6c1.3,1,2.5,2,3.8,2.9c1.6,1.2,3.2,2.4,4.7,3.6c1.7,1.4,2.4,3.2,2,5.4c-0.5,2.2-1.9,3.6-4,4.2
	c-2.1,0.6-3.9-0.1-5.4-1.7c-2.4-2.7-4.7-5.4-7-8.1c-0.1-0.1-0.2-0.2-0.3-0.4c-5.6,3.4-11.6,4.2-17.8,2.2c-5-1.6-8.8-4.7-11.5-9.1
	c-5.3-8.5-3.6-19.8,3.8-26.6c7.5-6.8,18.9-7.3,27-1.2C42.7,11,46.2,23.5,39.4,33.6z M5.2,21.7c0,9.3,7.5,16.8,16.8,16.8
	c9.3,0,16.7-7.6,16.7-17C38.6,12.4,31,5,21.7,5C12.6,5.1,5.1,12.7,5.2,21.7z"/>
<path class="st0" d="M16.1,20.6c-0.3,0.7-0.6,1.3-0.8,1.8c-0.3,0.8-0.9,1.1-1.7,1.1c-1.3,0-2.6,0-3.8,0c-1.1,0-1.9-0.8-1.8-1.8
	c0-1,0.8-1.7,1.8-1.7c0.8,0,1.6,0,2.5,0c0.3,0,0.5-0.1,0.6-0.4c0.7-1.3,1.3-2.5,2-3.8c0.5-0.8,1.1-1.2,1.8-1.1
	c0.8,0.1,1.3,0.6,1.5,1.4c0.9,2.9,1.8,5.7,2.7,8.6c0,0.2,0.1,0.3,0.2,0.6c0.1-0.3,0.2-0.5,0.3-0.6c1.4-4.1,2.7-8.1,4.1-12.2
	c0.4-1.2,1.6-1.8,2.6-1.1c0.4,0.3,0.7,0.7,0.8,1.2c0.8,2.3,1.6,4.5,2.3,6.8c0.1,0.4,0.3,0.6,0.8,0.6c0.7,0,1.5,0,2.2,0
	c1,0,1.8,0.8,1.8,1.8c0,1-0.8,1.7-1.8,1.7c-1.3,0-2.6,0-3.8,0c-1,0-1.6-0.4-1.8-1.3c-0.4-1.1-0.7-2.3-1.1-3.5
	c-0.1-0.2-0.1-0.4-0.3-0.7c-0.5,1.6-1,3.1-1.5,4.5c-1,2.8-1.9,5.7-2.9,8.5c-0.4,1.1-1.5,1.6-2.4,1.1c-0.5-0.2-0.8-0.6-0.9-1.2
	c-1-3.2-2.1-6.4-3.1-9.7C16.2,21.1,16.2,20.9,16.1,20.6z"/>
</svg>
