<?xml version="1.0" encoding="utf-8"?>
<!-- Generator: Adobe Illustrator 19.1.0, SVG Export Plug-In . SVG Version: 6.00 Build 0)  -->
<svg version="1.1" id="Layer_1" xmlns="http://www.w3.org/2000/svg" xmlns:xlink="http://www.w3.org/1999/xlink" x="0px" y="0px"
	 viewBox="0 0 50 50" style="enable-background:new 0 0 50 50;" xml:space="preserve">
<style type="text/css">
	.st0{fill:#568fa7;}
</style>
<path class="st0" d="M22.3,15.1c-0.1-0.1-0.3-0.2-0.4-0.3c-1.9-1.9-3.7-3.7-5.6-5.6c-0.9-0.9-0.9-2-0.1-2.8c0.6-0.6,1.5-0.7,2.2-0.2
	c0.2,0.2,0.5,0.3,0.7,0.5c1.8,1.8,3.7,3.6,5.5,5.5c0.1,0.1,0.2,0.3,0.4,0.5c0.2-0.2,0.4-0.3,0.5-0.5C29.1,8.5,32.9,4.7,36.6,1
	c0.8-0.8,1.5-0.9,2.3-0.6c1,0.4,1.4,1.7,0.8,2.6c-0.2,0.2-0.3,0.5-0.5,0.7c-3.7,3.7-7.4,7.4-11.1,11.1c-0.1,0.1-0.3,0.2-0.5,0.3
	c0.1,0.1,0.1,0.1,0.2,0.2c0.2,0,0.4,0,0.5,0c5.1,0,10.2,0,15.3,0c2.5,0,4.3,1.1,5.3,3.3c0.3,0.7,0.5,1.6,0.5,2.4c0,7.5,0,15,0,22.5
	c0,3.2-2.5,5.7-5.7,5.7c-12.5,0-25.1,0-37.6,0c-3.2,0-5.7-2.5-5.7-5.7c0-7.5,0-15,0-22.5c0-3.2,2.6-5.7,5.8-5.7c5.1,0,10.2,0,15.3,0
	c0.2,0,0.4,0,0.6,0C22.2,15.3,22.3,15.2,22.3,15.1z M20.4,19C20.4,19,20.4,19,20.4,19c-1.6,0.1-3.1,0.1-4.7,0.1
	c-2.1,0.1-4.3,0.1-6.4,0.6c-2,0.5-3.4,1.6-4.1,3.6c-0.3,1-0.6,2-0.7,3.1c-0.2,2.7-0.2,5.3-0.2,8c0,2.2,0.1,4.4,0.8,6.5
	c0.5,1.7,1.6,3,3.3,3.6c1.8,0.7,3.7,0.8,5.6,0.9c3.6,0.1,7.2,0.1,10.8,0.1c2.1,0,4.3-0.1,6.4-0.6c2.1-0.5,3.6-1.7,4.2-3.8
	c0.4-1.4,0.7-3,0.8-4.5c0.1-2.9,0.1-5.8,0-8.7c-0.1-1.4-0.4-2.9-0.7-4.3c-0.4-1.6-1.4-2.8-2.9-3.4c-1.3-0.5-2.6-0.8-4-0.9
	C25.8,19.1,23.1,19.1,20.4,19z M42.9,24.6c-1.6,0-3,1.3-3,2.9c0,1.6,1.3,2.9,3,3c1.6,0,3-1.3,3-3C45.8,25.9,44.5,24.6,42.9,24.6z
	 M42.9,38c1.6,0,3-1.3,3-2.9c0-1.6-1.3-2.9-2.9-3c-1.6,0-3,1.4-3,3C39.9,36.7,41.3,38,42.9,38z"/>
</svg>
