<?xml version="1.0" encoding="utf-8"?>
<!-- Generator: Adobe Illustrator 19.1.0, SVG Export Plug-In . SVG Version: 6.00 Build 0)  -->
<svg version="1.1" id="Layer_1" xmlns="http://www.w3.org/2000/svg" xmlns:xlink="http://www.w3.org/1999/xlink" x="0px" y="0px"
	 viewBox="0 0 50 50" style="enable-background:new 0 0 50 50;" xml:space="preserve">
<style type="text/css">
	.st0{fill:#fff;}
</style>
<path class="st0" d="M15.6,7.5c7.9,0,14.2,6.3,14.2,14.2c0,7.8-6.4,14.2-14.2,14.2c-8,0-14.3-6.3-14.3-14.2
	C1.4,13.8,7.7,7.5,15.6,7.5z M15.6,32.1c5.8,0,10.4-4.7,10.4-10.6c0-5.5-4.8-10.2-10.4-10.2c-5.8,0-10.4,4.7-10.3,10.5
	C5.3,27.5,10,32.1,15.6,32.1z"/>
<path class="st0" d="M23.7,34.8c2.3-1.4,4-3.2,5.3-5.6c1.2,1.3,2.4,2.5,3.6,3.6c2.9,2.9,5.8,5.8,8.6,8.7c1.9,2,1.4,5.1-1,6.3
	c-1.5,0.7-3.2,0.4-4.4-0.8c-2.5-2.5-5-5-7.6-7.5c-1.4-1.4-2.8-2.8-4.2-4.2C24,35.1,23.9,35,23.7,34.8z"/>
<path class="st0" d="M26.5,10.9c-0.7-0.6-1.4-1.2-2.2-1.8c0.5-1.6,1-3.3,1.6-4.9c0.2-0.6,0.7-0.8,1.3-0.8c3.1,0,6.2,0,9.3,0
	c3.8,0,7.7,0,11.5,0c1.1,0,1.7,1,1.2,1.9C49,5.8,48.5,6,48,6c-3.4,0-6.9,0-10.3,0c-3,0-6.1,0-9.1,0c-0.4,0-0.6,0.1-0.7,0.5
	C27.5,7.9,27,9.4,26.5,10.9z"/>
<path class="st0" d="M19.5,23.8c0.9-2.8,1.8-5.6,2.8-8.5c0.8,0.8,1.4,1.7,1.8,2.6c0.1,0.1,0,0.3-0.1,0.5c-1.1,3.3-2.2,6.7-3.3,10
	c-0.2,0.7-0.7,1.1-1.3,1.1c-0.6,0-1.1-0.3-1.3-1.1c-1.1-3.4-2.2-6.9-3.3-10.3c-0.1-0.4-0.3-0.6-0.7-0.5c-1.3,0-2.6,0-3.9,0
	c-0.9,0-1.5-0.5-1.5-1.3c0-0.8,0.6-1.3,1.5-1.3c1.7,0,3.5,0,5.2,0c0.9,0,1.3,0.3,1.5,1.1c0.8,2.4,1.5,4.8,2.3,7.1
	c0.1,0.2,0.1,0.3,0.2,0.5C19.5,23.8,19.5,23.8,19.5,23.8z"/>
</svg>
