<?xml version="1.0" encoding="utf-8"?>
<!-- Generator: Adobe Illustrator 19.1.0, SVG Export Plug-In . SVG Version: 6.00 Build 0)  -->
<svg version="1.1" id="Layer_1" xmlns="http://www.w3.org/2000/svg" xmlns:xlink="http://www.w3.org/1999/xlink" x="0px" y="0px"
	 viewBox="0 0 50 50" style="enable-background:new 0 0 50 50;" xml:space="preserve">
<style type="text/css">
	.st0{fill:#5d9ab4;}
</style>
<path class="st0" d="M0.3,24.5c0.4-0.4,0.8-0.9,1.2-1.2c3.1-2.6,6.2-5.2,9.3-7.7c2.4-2,4.7-3.9,7.1-5.9C19.5,8.3,21,7,22.6,5.7
	c1.4-1.1,3.4-1.1,4.8,0c2.4,2,4.8,4,7.2,6c0,0,0.1,0.1,0.2,0.1c0-0.2,0-0.3,0-0.5c0-1.7,0-3.4,0-5.2c0-1,0.3-1.3,1.3-1.3
	c1.8,0,3.5,0,5.3,0c0.9,0,1.2,0.3,1.2,1.2c0,3.9,0,7.9,0,11.8c0,0.3,0.1,0.5,0.3,0.7c2,1.7,4,3.3,6.1,5c0.3,0.2,0.4,0.5,0.7,0.8
	c0,0.2,0,0.4,0,0.6c-0.6,0.8-1.3,1.6-1.9,2.4c-0.6,0.7-1.1,0.7-1.8,0.2c-1.8-1.5-3.7-3.1-5.5-4.6c-1.6-1.3-3.2-2.7-4.8-4
	c-1.7-1.4-3.3-2.8-5-4.2c-1.8-1.5-3.6-3-5.4-4.5c-0.2-0.2-0.4-0.2-0.6,0c-1.6,1.4-3.3,2.8-4.9,4.1c-1.6,1.4-3.3,2.7-4.9,4.1
	c-1.6,1.4-3.3,2.7-4.9,4.1c-1.8,1.5-3.7,3.1-5.5,4.6c-0.2,0.2-0.4,0.4-0.6,0.5c-0.5,0.4-1,0.3-1.4-0.1c-0.7-0.8-1.4-1.7-2.1-2.5
	C0.3,24.9,0.3,24.7,0.3,24.5z"/>
<path class="st0" d="M28.9,44.1c0-3.9,0-7.8,0-11.7c-0.2,0-0.3,0-0.4,0c-2.3,0-4.7,0-7,0c-0.3,0-0.4,0.1-0.4,0.4c0,3.6,0,7.2,0,10.8
	c0,0.2,0,0.3,0,0.6c-0.2,0-0.3,0-0.5,0c-3.7,0-7.4,0-11,0c-1.4,0-2.2-0.8-2.2-2.2c0-4.7,0-9.4,0-14.2c0-0.4,0.1-0.6,0.4-0.8
	c2.7-2.2,5.4-4.5,8.1-6.7c2.4-2,4.8-3.9,7.2-5.9c0.6-0.5,1.3-1.1,1.9-1.6c1,0.8,1.9,1.6,2.8,2.3c2.7,2.3,5.5,4.5,8.2,6.8
	c2.1,1.7,4.2,3.5,6.3,5.2c0.1,0.1,0.2,0.3,0.2,0.5c0,4.8,0,9.7,0,14.5c0,1.2-0.8,2-2,2c-3.8,0-7.7,0-11.5,0
	C29.1,44.1,29,44.1,28.9,44.1z"/>
</svg>
