<?xml version="1.0" encoding="utf-8"?>
<!-- Generator: Adobe Illustrator 19.1.0, SVG Export Plug-In . SVG Version: 6.00 Build 0)  -->
<svg version="1.1" id="Layer_1" xmlns="http://www.w3.org/2000/svg" xmlns:xlink="http://www.w3.org/1999/xlink" x="0px" y="0px"
	 viewBox="0 0 50 50" style="enable-background:new 0 0 50 50;" xml:space="preserve">
<style type="text/css">
	.st0{fill:#559f67;}
</style>
<path class="st0" d="M39.8,25.4c-5.5-3-11-3.3-16.3,0.3c-5.4,3.7-7.1,9.1-5.9,15.5c-0.2,0-0.3,0-0.5,0c-1.9,0-3.7,0-5.6,0
	c-1.4,0-2.1-0.7-2.1-2.1c0-4.2,0-8.4,0-12.6c0-0.6,0.2-1.1,0.6-1.5c4.4-4.5,8.8-8.9,13.3-13.4c0.9-0.9,2-0.9,2.9,0
	c4.4,4.5,8.8,8.9,13.3,13.4C39.5,25.1,39.6,25.2,39.8,25.4z"/>
<path class="st0" d="M34.5,9c0-0.8,0-1.5,0-2.2c1.8,0,3.5,0,5.3,0c0,0.3,0,0.5,0,0.8c0,2.1,0,4.2,0,6.3c0,0.3,0.2,0.7,0.4,0.9
	c2,2.1,4.1,4.1,6.1,6.2c1,1.1,1.1,2.6,0.3,3.7c-1,1.3-2.8,1.3-4,0.2c-1.8-1.8-3.6-3.6-5.5-5.4c-4-4-8-8-12.1-12.1
	C25,7.1,24.9,7,24.7,6.8c-0.2,0.2-0.3,0.3-0.5,0.5c-5.8,5.8-11.5,11.5-17.3,17.3c-0.8,0.8-1.7,1.1-2.9,0.8c-1.9-0.5-2.5-2.8-1.3-4.3
	C2.9,21,3,20.8,3.2,20.7C9.6,14.3,16,7.8,22.5,1.4c1.5-1.5,2.9-1.5,4.4,0c2.4,2.4,4.7,4.7,7.1,7.1C34.1,8.6,34.3,8.8,34.5,9z"/>
<path class="st0" d="M43.9,37.7c-0.1,6.8-5.5,12.2-12.4,12.2c-6.7,0-12.1-5.6-12.1-12.3c0-6.7,5.6-12.2,12.3-12.1
	C38.5,25.5,44,31,43.9,37.7z M23.3,37.6c0,4.6,3.8,8.4,8.4,8.4c4.7,0,8.4-3.8,8.4-8.4c0-4.6-3.8-8.4-8.4-8.4
	C27,29.3,23.3,33,23.3,37.6z"/>
<path class="st0" d="M29.7,39.6c0.9-0.9,1.6-1.7,2.4-2.5c1.4-1.4,2.7-2.7,4.1-4.1c0.6-0.6,1.4-0.6,1.9-0.1c0.5,0.5,0.5,1.3-0.1,1.9
	c-2.4,2.4-4.9,4.9-7.3,7.3c-0.6,0.6-1.4,0.6-2,0c-1.1-1.1-2.2-2.2-3.3-3.3c-0.6-0.6-0.6-1.4,0-1.9c0.5-0.5,1.3-0.5,1.8,0.1
	C28,37.9,28.8,38.7,29.7,39.6z"/>
</svg>
