<?xml version="1.0" encoding="utf-8"?>
<!-- Generator: Adobe Illustrator 19.1.0, SVG Export Plug-In . SVG Version: 6.00 Build 0)  -->
<svg version="1.1" id="Layer_1" xmlns="http://www.w3.org/2000/svg" xmlns:xlink="http://www.w3.org/1999/xlink" x="0px" y="0px"
	 viewBox="0 0 50 50" style="enable-background:new 0 0 50 50;" xml:space="preserve">
<style type="text/css">
	.st0{fill:#ebebeb;}
</style>
<path class="st0" d="M25,37.5c6.9,0,13.8,0,20.7,0c0.7,0,1.3,0.1,1.9,0.4c1.4,0.7,2.5,2.3,2.2,4.2c-0.2,1.8-1.6,3.2-3.3,3.5
	c-0.3,0.1-0.6,0.1-0.9,0.1c-3.4,0-6.8,0-10.2,0c-10.4,0-20.8,0-31.2,0c-0.9,0-1.7-0.2-2.4-0.7C0.6,44.2,0,43,0,41.5
	c0.1-2,1.6-3.6,3.5-3.9c0.2,0,0.5,0,0.7,0C11.2,37.5,18.1,37.5,25,37.5z"/>
<path class="st0" d="M25,29.1c-6.9,0-13.8,0-20.7,0c-1,0-1.9-0.3-2.7-0.9c-1.3-1.1-1.8-2.5-1.4-4.1c0.4-1.6,1.5-2.7,3.1-3.1
	c0.2-0.1,0.5-0.1,0.8-0.1c0.1,0,0.2,0,0.3,0c13.8,0,27.6,0,41.4,0c0.6,0,1.2,0.1,1.8,0.3c1.7,0.7,2.7,2.5,2.5,4.2
	c-0.2,1.8-1.6,3.3-3.4,3.6c-0.3,0-0.6,0.1-0.9,0.1C38.8,29.1,31.9,29.1,25,29.1z"/>
<path class="st0" d="M25,12.5c-6.9,0-13.8,0-20.7,0c-0.9,0-1.8-0.2-2.6-0.8c-1.4-1.1-1.9-2.5-1.6-4.2c0.4-1.7,1.5-2.8,3.2-3.1
	C3.7,4.3,4,4.3,4.3,4.3c8.9,0,17.8,0,26.7,0c4.9,0,9.8,0,14.7,0c0.8,0,1.5,0.2,2.1,0.5c1.4,0.8,2.3,2.4,2.1,4.1
	c-0.2,1.7-1.5,3.1-3.3,3.5c-0.3,0.1-0.7,0.1-1,0.1C38.8,12.5,31.9,12.5,25,12.5z"/>
</svg>
